# Blender v3.5.1 OBJ File: 'corner int.blend'
# www.blender.org
mtllib corner int.mtl
o SketchUp_ID3.003
v 0.200000 0.000000 -0.200000
v 1.000000 0.000000 -0.200000
v 1.000000 0.000000 0.000000
v 0.000000 0.000000 0.000000
v 0.000000 0.000000 -1.000000
v 0.200000 0.000000 -1.000000
v 0.200000 1.000000 -0.200000
v 1.000000 1.008882 -0.200000
v 1.000000 1.000000 0.000000
v 0.000000 1.000000 0.000000
v 0.000000 1.000000 -1.000000
v 0.200000 1.000000 -1.000000
v 0.200000 2.000000 -0.200000
v 1.000000 2.000000 -0.200000
v 1.000000 2.000000 0.000000
v 0.000000 2.000000 0.000000
v 0.000000 2.000000 0.000000
v 0.000000 2.000000 -1.000000
v 0.000000 2.000000 -1.000000
v 0.200000 2.000000 -1.000000
v 0.200000 2.000000 -0.200000
v 0.200000 2.000000 -1.000000
v 0.200000 2.000000 -0.200000
v 0.200000 2.000000 -1.000000
v 0.000000 2.000000 -1.000000
v 0.000000 2.000000 0.000000
vn 0.0000 -1.0000 0.0000
vn -0.0000 0.0000 -1.0000
vn 1.0000 0.0000 0.0000
vn 0.0000 0.0000 1.0000
vn -1.0000 0.0000 0.0000
vn 0.0000 1.0000 0.0000
usemtl material.003
s off
f 1//1 4//1 5//1 6//1
f 2//2 1//2 7//2 8//2
f 2//3 8//3 9//3 3//3
f 3//4 9//4 10//4 4//4
f 4//5 10//5 11//5 5//5
f 11//2 12//2 6//2 5//2
f 7//3 1//3 6//3 12//3
f 8//2 7//2 13//2 14//2
f 15//3 9//3 8//3 14//3
f 16//4 10//4 9//4 15//4
f 17//5 18//5 11//5 10//5
f 19//2 20//2 12//2 11//2
f 21//3 7//3 12//3 22//3
f 14//6 23//6 26//6 15//6
f 26//6 23//6 24//6 25//6
f 4//1 1//1 2//1 3//1
