# Blender v2.93.3 OBJ File: 'wall3.blend'
# www.blender.org
mtllib wall3.mtl
o Cube
v 1.000000 2.000000 -0.200000
v 1.000000 0.000000 -0.200000
v 1.000000 2.000000 -0.100000
v 1.000000 0.000000 -0.100000
v 0.000000 2.000000 -0.200000
v 0.000000 0.000000 -0.200000
v 0.000000 2.000000 -0.100000
v 0.000000 0.000000 -0.100000
v 1.000000 1.000000 -0.200000
v 0.000000 1.000000 -0.100000
v 1.000000 1.000000 -0.100000
v 0.000000 1.000000 -0.200000
v 0.500000 2.000000 0.100000
v 0.500000 2.000000 -0.100000
v 1.000000 2.000000 0.100000
v 0.500000 2.000000 -0.200000
v 1.000000 1.500000 0.100000
v 0.000000 1.500000 0.000000
v 0.000000 1.000000 0.000000
v 1.000000 1.500000 -0.100000
v 0.000000 1.500000 -0.100000
v 0.097545 1.490393 -0.100000
v 0.097545 1.490393 0.000000
v 0.191342 1.461940 -0.100000
v 0.191342 1.461940 0.000000
v 0.277785 1.415735 -0.100000
v 0.277785 1.415735 0.000000
v 0.353553 1.353553 -0.100000
v 0.353553 1.353553 0.000000
v 0.415735 1.277785 -0.100000
v 0.415735 1.277785 0.000000
v 0.461940 1.191342 -0.100000
v 0.461940 1.191342 0.000000
v 0.490393 1.097545 -0.100000
v 0.490393 1.097545 0.000000
v 0.500000 1.000000 -0.100000
v 0.500000 1.000000 0.000000
v 1.000000 0.000000 0.100000
v 0.000000 0.000000 0.100000
v 1.000000 1.000000 0.100000
v 0.000000 0.000000 0.000000
v 1.000000 0.000000 0.000000
v 1.000000 1.000000 0.000000
v 0.490393 0.902455 -0.100000
v 0.490393 0.902455 0.000000
v 0.461940 0.808658 -0.100000
v 0.461940 0.808658 0.000000
v 0.415735 0.722215 -0.100000
v 0.415735 0.722215 0.000000
v 0.353553 0.646447 -0.100000
v 0.353553 0.646447 0.000000
v 0.277785 0.584265 -0.100000
v 0.277785 0.584265 0.000000
v 0.191342 0.538060 -0.100000
v 0.191342 0.538060 0.000000
v 0.097545 0.509607 -0.100000
v 0.097545 0.509607 0.000000
v 0.000000 0.500000 -0.100000
v 0.000000 0.500000 0.000000
v 0.980785 0.804910 0.000000
v 0.980785 0.804910 0.100000
v 0.923880 0.617317 0.000000
v 0.923880 0.617317 0.100000
v 0.831470 0.444430 0.000000
v 0.831470 0.444430 0.100000
v 0.707107 0.292893 0.000000
v 0.707107 0.292893 0.100000
v 0.555570 0.168530 0.000000
v 0.555570 0.168530 0.100000
v 0.382684 0.076121 0.000000
v 0.382684 0.076120 0.100000
v 0.195090 0.019215 0.000000
v 0.195090 0.019215 0.100000
vt 0.750000 0.500000
vt 0.875000 0.500000
vt 0.875000 0.750000
vt 0.750000 0.750000
vt 0.625000 0.875000
vt 0.625000 1.000000
vt 0.500000 1.000000
vt 0.500000 0.750000
vt 0.562500 0.750000
vt 0.375000 0.750000
vt 0.375000 1.000000
vt 0.625000 0.875000
vt 0.562500 0.750000
vt 0.625000 0.750000
vt 0.375000 0.250000
vt 0.500000 0.250000
vt 0.500000 0.500000
vt 0.375000 0.500000
vt 0.125000 0.500000
vt 0.125000 0.750000
vt 0.375000 0.000000
vt 0.500000 0.000000
vt 0.625000 0.500000
vt 0.625000 0.750000
vt 0.750000 0.750000
vt 0.625000 0.375000
vt 0.625000 0.250000
vt 1.000000 0.500000
vt 1.000000 1.000000
vt 0.968750 1.000000
vt 0.968750 0.500000
vt 0.625000 0.000000
vt 0.937500 1.000000
vt 0.937500 0.500000
vt 0.906250 1.000000
vt 0.906250 0.500000
vt 0.875000 1.000000
vt 0.875000 0.500000
vt 0.843750 1.000000
vt 0.843750 0.500000
vt 0.812500 1.000000
vt 0.812500 0.500000
vt 0.781250 1.000000
vt 0.781250 0.500000
vt 0.750000 1.000000
vt 0.750000 0.500000
vt 0.296822 0.485388
vt 0.250000 0.490000
vt 0.250000 0.250000
vt 0.490000 0.250000
vt 0.485388 0.296822
vt 0.471731 0.341844
vt 0.449553 0.383337
vt 0.419706 0.419706
vt 0.383337 0.449553
vt 0.341844 0.471731
vt 0.000000 0.000000
vt 0.375000 0.750000
vt 0.375000 0.750000
vt 0.500000 0.750000
vt 0.750000 1.000000
vt 0.500000 1.000000
vt 0.500000 0.500000
vt 0.375000 1.000000
vt 0.718750 1.000000
vt 0.718750 0.500000
vt 0.687500 1.000000
vt 0.687500 0.500000
vt 0.656250 1.000000
vt 0.656250 0.500000
vt 0.625000 1.000000
vt 0.625000 0.500000
vt 0.593750 1.000000
vt 0.593750 0.500000
vt 0.562500 1.000000
vt 0.562500 0.500000
vt 0.531250 1.000000
vt 0.531250 0.500000
vt 0.500000 1.000000
vt 0.500000 0.500000
vt 0.750000 0.500000
vt 0.718750 1.000000
vt 0.718750 0.500000
vt 0.687500 1.000000
vt 0.687500 0.500000
vt 0.656250 1.000000
vt 0.656250 0.500000
vt 0.625000 1.000000
vt 0.625000 0.500000
vt 0.593750 1.000000
vt 0.593750 0.500000
vt 0.562500 1.000000
vt 0.562500 0.500000
vt 0.531250 1.000000
vt 0.531250 0.500000
vn 0.0000 1.0000 0.0000
vn 0.0000 0.0000 1.0000
vn 0.0000 0.0000 -1.0000
vn 0.0000 -1.0000 0.0000
vn 1.0000 0.0000 0.0000
vn -1.0000 0.0000 0.0000
vn 0.0980 0.9952 0.0000
vn -0.7071 -0.7071 0.0000
vn 0.2903 0.9569 0.0000
vn 0.4714 0.8819 0.0000
vn 0.6344 0.7730 0.0000
vn 0.7730 0.6344 0.0000
vn 0.8819 0.4714 0.0000
vn 0.9569 0.2903 0.0000
vn 0.9952 0.0980 0.0000
vn 0.9952 -0.0980 0.0000
vn 0.9569 -0.2903 0.0000
vn 0.8819 -0.4714 -0.0000
vn 0.7730 -0.6344 -0.0000
vn 0.6344 -0.7730 0.0000
vn 0.4714 -0.8819 -0.0000
vn 0.2903 -0.9569 0.0000
vn 0.0980 -0.9952 0.0000
usemtl Material
s off
f 16/1/1 5/2/1 7/3/1 14/4/1
f 14/5/2 7/6/2 10/7/2 11/8/2 20/9/2
f 4/10/2 11/8/2 10/7/2 8/11/2
f 13/12/2 17/13/2 15/14/2
f 6/15/3 12/16/3 9/17/3 2/18/3
f 6/19/4 2/18/4 4/10/4 8/20/4
f 2/18/5 9/17/5 11/8/5 4/10/5
f 8/21/6 10/22/6 12/16/6 6/15/6
f 9/17/5 1/23/5 3/24/5 20/9/5 11/8/5
f 3/24/1 14/4/1 13/25/1 15/14/1
f 20/9/5 3/24/5 15/14/5 17/13/5
f 1/23/1 16/1/1 14/4/1 3/24/1
f 16/26/3 1/23/3 9/17/3 12/16/3 5/27/3
f 21/28/7 18/29/7 23/30/7 22/31/7
f 14/5/8 20/9/8 17/13/8 13/12/8
f 10/22/6 7/32/6 5/27/6 12/16/6
f 22/31/9 23/30/9 25/33/9 24/34/9
f 24/34/10 25/33/10 27/35/10 26/36/10
f 26/36/11 27/35/11 29/37/11 28/38/11
f 28/38/12 29/37/12 31/39/12 30/40/12
f 30/40/13 31/39/13 33/41/13 32/42/13
f 32/42/14 33/41/14 35/43/14 34/44/14
f 34/44/15 35/43/15 37/45/15 36/46/15
f 23/47/2 18/48/2 19/49/2 37/50/2 35/51/2 33/52/2 31/53/2 29/54/2 27/55/2 25/56/2
f 18/48/6 21/28/6 10/57/6 19/49/6
f 37/50/4 19/49/4 10/57/4 36/46/4
f 38/58/5 42/59/5 43/60/5 40/61/5
f 39/62/4 41/63/4 42/59/4 38/58/4
f 4/10/5 11/8/5 43/60/5 42/59/5
f 8/11/4 4/10/4 42/59/4 41/64/4
f 37/45/4 36/46/4 11/8/4 43/60/4
f 36/46/16 37/45/16 45/65/16 44/66/16
f 44/66/17 45/65/17 47/67/17 46/68/17
f 46/68/18 47/67/18 49/69/18 48/70/18
f 48/70/19 49/69/19 51/71/19 50/72/19
f 50/72/20 51/71/20 53/73/20 52/74/20
f 52/74/21 53/73/21 55/75/21 54/76/21
f 54/76/22 55/75/22 57/77/22 56/78/22
f 56/78/23 57/77/23 59/79/23 58/80/23
f 8/11/6 41/64/6 59/79/6 58/80/6
f 43/81/16 40/61/16 61/82/16 60/83/16
f 60/83/17 61/82/17 63/84/17 62/85/17
f 62/85/18 63/84/18 65/86/18 64/87/18
f 64/87/19 65/86/19 67/88/19 66/89/19
f 66/89/20 67/88/20 69/90/20 68/91/20
f 68/91/21 69/90/21 71/92/21 70/93/21
f 70/93/22 71/92/22 73/94/22 72/95/22
f 72/95/23 73/94/23 39/62/23 41/63/23
f 47/67/3 45/65/3 60/83/3 62/85/3
f 43/81/3 60/83/3 45/65/3 37/45/3
f 49/69/3 47/67/3 62/85/3 64/87/3
f 51/71/3 49/69/3 64/87/3 66/89/3
f 53/73/3 51/71/3 66/89/3 68/91/3
f 55/75/3 53/73/3 68/91/3 70/93/3
f 57/77/3 55/75/3 70/93/3 72/95/3
f 59/79/3 57/77/3 72/95/3 41/64/3
f 40/61/2 61/82/2 63/84/2 38/58/2
f 38/58/2 63/84/2 65/86/2 67/88/2
f 67/88/2 69/90/2 71/92/2 38/58/2
f 38/58/2 71/92/2 73/94/2 39/62/2
