# 3ds Max Wavefront OBJ Exporter v0.99 - (c)2007 guruware
# File Created: 18.10.2023 17:31:46

mtllib smokebomb.mtl

#
# object Cilindro001
#

v  -5.5375 -0.2557 -7.4921
v  -6.1887 -0.2557 -6.3642
v  -7.1864 -0.2557 -5.5271
v  -8.4102 -0.2557 -5.0817
v  -9.7125 -0.2557 -5.0817
v  -10.9363 -0.2557 -5.5271
v  -11.9340 -0.2557 -6.3642
v  -12.5851 -0.2557 -7.4921
v  -12.8113 -0.2557 -8.7746
v  -12.5851 -0.2557 -10.0572
v  -11.9340 -0.2557 -11.1851
v  -10.9363 -0.2557 -12.0222
v  -9.7125 -0.2557 -12.4676
v  -8.4102 -0.2557 -12.4676
v  -7.1864 -0.2557 -12.0222
v  -6.1887 -0.2557 -11.1851
v  -5.5375 -0.2557 -10.0572
v  -5.3114 -0.2557 -8.7746
v  -4.4769 0.0000 -8.7746
v  -4.7534 0.0000 -10.3426
v  -4.7534 2.8808 -10.3426
v  -4.4769 2.8808 -8.7746
v  -5.5495 0.0000 -11.7214
v  -5.5495 2.8808 -11.7214
v  -6.7691 0.0000 -12.7449
v  -6.7691 2.8808 -12.7449
v  -8.2653 0.0000 -13.2894
v  -8.2653 2.8808 -13.2894
v  -9.8574 0.0000 -13.2894
v  -9.8574 2.8808 -13.2894
v  -11.3535 0.0000 -12.7449
v  -11.3535 2.8808 -12.7449
v  -12.5732 0.0000 -11.7214
v  -12.5732 2.8808 -11.7214
v  -13.3693 0.0000 -10.3426
v  -13.3693 2.8808 -10.3426
v  -13.6457 0.0000 -8.7746
v  -13.6457 2.8808 -8.7746
v  -13.3693 0.0000 -7.2067
v  -13.3693 2.8808 -7.2067
v  -12.5732 0.0000 -5.8279
v  -12.5732 2.8808 -5.8279
v  -11.3535 0.0000 -4.8044
v  -11.3535 2.8808 -4.8044
v  -9.8574 0.0000 -4.2599
v  -9.8574 2.8808 -4.2599
v  -8.2653 0.0000 -4.2599
v  -8.2653 2.8808 -4.2599
v  -6.7691 0.0000 -4.8044
v  -6.7691 2.8808 -4.8044
v  -5.5495 0.0000 -5.8279
v  -5.5495 2.8808 -5.8279
v  -4.7534 0.0000 -7.2067
v  -4.7534 2.8808 -7.2067
v  -4.7534 5.7616 -10.3426
v  -4.4769 5.7616 -8.7746
v  -5.5495 5.7616 -11.7214
v  -6.7691 5.7616 -12.7449
v  -8.2653 5.7616 -13.2894
v  -9.8574 5.7616 -13.2894
v  -11.3535 5.7616 -12.7449
v  -12.5732 5.7616 -11.7214
v  -13.3693 5.7616 -10.3426
v  -13.6457 5.7616 -8.7746
v  -13.3693 5.7616 -7.2067
v  -12.5732 5.7616 -5.8279
v  -11.3535 5.7616 -4.8044
v  -9.8574 5.7616 -4.2599
v  -8.2653 5.7616 -4.2599
v  -6.7691 5.7616 -4.8044
v  -5.5495 5.7616 -5.8279
v  -4.7534 5.7616 -7.2067
v  -4.7534 8.6424 -10.3426
v  -4.4769 8.6424 -8.7746
v  -5.5495 8.6424 -11.7214
v  -6.7691 8.6424 -12.7449
v  -8.2653 8.6424 -13.2894
v  -9.8574 8.6424 -13.2894
v  -11.3535 8.6424 -12.7449
v  -12.5732 8.6424 -11.7214
v  -13.3693 8.6424 -10.3426
v  -13.6457 8.6424 -8.7746
v  -13.3693 8.6424 -7.2067
v  -12.5732 8.6424 -5.8279
v  -11.3535 8.6424 -4.8044
v  -9.8574 8.6424 -4.2599
v  -8.2653 8.6424 -4.2599
v  -6.7691 8.6424 -4.8044
v  -5.5495 8.6424 -5.8279
v  -4.7534 8.6424 -7.2067
v  -4.7534 11.5232 -10.3426
v  -4.4769 11.5232 -8.7746
v  -5.5495 11.5232 -11.7214
v  -6.7691 11.5232 -12.7449
v  -8.2653 11.5232 -13.2894
v  -9.8574 11.5232 -13.2894
v  -11.3535 11.5232 -12.7449
v  -12.5732 11.5232 -11.7214
v  -13.3693 11.5232 -10.3426
v  -13.6457 11.5232 -8.7746
v  -13.3693 11.5232 -7.2067
v  -12.5732 11.5232 -5.8279
v  -11.3535 11.5232 -4.8044
v  -9.8574 11.5232 -4.2599
v  -8.2653 11.5232 -4.2599
v  -6.7691 11.5232 -4.8044
v  -5.5495 11.5232 -5.8279
v  -4.7534 11.5232 -7.2067
v  -4.7534 14.4040 -10.3426
v  -4.4769 14.4040 -8.7746
v  -5.5495 14.4040 -11.7214
v  -6.7691 14.4040 -12.7449
v  -8.2653 14.4040 -13.2894
v  -9.8574 14.4040 -13.2894
v  -11.3535 14.4040 -12.7449
v  -12.5732 14.4040 -11.7214
v  -13.3693 14.4040 -10.3426
v  -13.6457 14.4040 -8.7746
v  -13.3693 14.4040 -7.2067
v  -12.5732 14.4040 -5.8279
v  -11.3535 14.4040 -4.8044
v  -9.8574 14.4040 -4.2599
v  -8.2653 14.4040 -4.2599
v  -6.7691 14.4040 -4.8044
v  -5.5495 14.4040 -5.8279
v  -4.7534 14.4040 -7.2067
v  -7.3119 16.4495 -8.1379
v  -7.1996 16.4495 -8.7746
v  -7.3119 16.4495 -9.4114
v  -7.6352 16.4495 -9.9714
v  -8.1305 16.4495 -10.3870
v  -8.7380 16.4495 -10.6081
v  -9.3846 16.4495 -10.6081
v  -9.9922 16.4495 -10.3870
v  -10.4875 16.4495 -9.9714
v  -10.8108 16.4495 -9.4114
v  -10.9231 16.4495 -8.7746
v  -10.8108 16.4495 -8.1379
v  -10.4875 16.4495 -7.5779
v  -9.9922 16.4495 -7.1623
v  -9.3846 16.4495 -6.9412
v  -8.7380 16.4495 -6.9412
v  -8.1305 16.4495 -7.1623
v  -7.6352 16.4495 -7.5779
v  -6.8379 14.4040 -9.5839
v  -6.6952 14.4040 -8.7746
v  -7.2488 14.4040 -10.2956
v  -7.8783 14.4040 -10.8238
v  -8.6505 14.4040 -11.1048
v  -9.4722 14.4040 -11.1048
v  -10.2444 14.4040 -10.8238
v  -10.8739 14.4040 -10.2956
v  -11.2847 14.4040 -9.5839
v  -11.4274 14.4040 -8.7746
v  -11.2847 14.4040 -7.9654
v  -10.8739 14.4040 -7.2537
v  -10.2444 14.4040 -6.7255
v  -9.4722 14.4040 -6.4445
v  -8.6505 14.4040 -6.4445
v  -7.8783 14.4040 -6.7255
v  -7.2488 14.4040 -7.2537
v  -6.8379 14.4040 -7.9654
v  -6.8379 16.1938 -9.5839
v  -6.6952 16.1938 -8.7746
v  -7.2488 16.1938 -10.2956
v  -7.8783 16.1938 -10.8238
v  -8.6505 16.1938 -11.1048
v  -9.4722 16.1938 -11.1048
v  -10.2444 16.1938 -10.8238
v  -10.8739 16.1938 -10.2956
v  -11.2847 16.1938 -9.5839
v  -11.4274 16.1938 -8.7746
v  -11.2847 16.1938 -7.9654
v  -10.8739 16.1938 -7.2537
v  -10.2444 16.1938 -6.7255
v  -9.4722 16.1938 -6.4445
v  -8.6505 16.1938 -6.4445
v  -7.8783 16.1938 -6.7255
v  -7.2488 16.1938 -7.2537
v  -6.8379 16.1938 -7.9654
# 180 vertices

vn 0.1542 -0.9864 0.0561
vn 0.1257 -0.9864 0.1055
vn 0.0821 -0.9864 0.1421
vn 0.0285 -0.9864 0.1616
vn -0.0285 -0.9864 0.1616
vn -0.0821 -0.9864 0.1421
vn -0.1257 -0.9864 0.1055
vn -0.1542 -0.9864 0.0561
vn -0.1641 -0.9864 -0.0000
vn -0.1542 -0.9864 -0.0561
vn -0.1257 -0.9864 -0.1055
vn -0.0821 -0.9864 -0.1421
vn -0.0285 -0.9864 -0.1616
vn 0.0285 -0.9864 -0.1616
vn 0.0821 -0.9864 -0.1421
vn 0.1257 -0.9864 -0.1055
vn 0.1542 -0.9864 -0.0561
vn 0.1641 -0.9864 0.0000
vn 0.8251 -0.5650 0.0000
vn 0.7753 -0.5650 -0.2822
vn 0.9397 0.0000 -0.3420
vn 1.0000 0.0000 0.0000
vn 0.6321 -0.5650 -0.5304
vn 0.7660 0.0000 -0.6428
vn 0.4125 -0.5650 -0.7145
vn 0.5000 0.0000 -0.8660
vn 0.1433 -0.5650 -0.8126
vn 0.1736 0.0000 -0.9848
vn -0.1433 -0.5650 -0.8126
vn -0.1736 0.0000 -0.9848
vn -0.4125 -0.5650 -0.7145
vn -0.5000 0.0000 -0.8660
vn -0.6321 -0.5650 -0.5304
vn -0.7660 0.0000 -0.6428
vn -0.7753 -0.5650 -0.2822
vn -0.9397 0.0000 -0.3420
vn -0.8251 -0.5650 0.0000
vn -1.0000 0.0000 0.0000
vn -0.7753 -0.5650 0.2822
vn -0.9397 0.0000 0.3420
vn -0.6320 -0.5651 0.5303
vn -0.7660 0.0000 0.6428
vn -0.4125 -0.5650 0.7145
vn -0.5000 0.0000 0.8660
vn -0.1433 -0.5650 0.8126
vn -0.1736 0.0000 0.9848
vn 0.1433 -0.5650 0.8126
vn 0.1736 0.0000 0.9848
vn 0.4125 -0.5650 0.7145
vn 0.5000 0.0000 0.8660
vn 0.6320 -0.5650 0.5304
vn 0.7660 0.0000 0.6428
vn 0.7753 -0.5650 0.2822
vn 0.9397 0.0000 0.3420
vn 0.6975 0.6701 -0.2539
vn 0.7423 0.6701 0.0000
vn 0.5687 0.6700 -0.4772
vn 0.3712 0.6700 -0.6429
vn 0.1289 0.6700 -0.7311
vn -0.1289 0.6700 -0.7311
vn -0.3712 0.6700 -0.6429
vn -0.5687 0.6700 -0.4772
vn -0.6975 0.6701 -0.2539
vn -0.7423 0.6701 0.0000
vn -0.6975 0.6701 0.2539
vn -0.5686 0.6701 0.4771
vn -0.3711 0.6701 0.6429
vn -0.1289 0.6700 0.7311
vn 0.1289 0.6700 0.7311
vn 0.3712 0.6700 0.6429
vn 0.5686 0.6701 0.4772
vn 0.6975 0.6701 0.2539
vn 0.2411 0.9665 0.0878
vn 0.2566 0.9665 0.0000
vn 0.2411 0.9665 -0.0878
vn 0.1966 0.9665 -0.1649
vn 0.1283 0.9665 -0.2222
vn 0.0446 0.9665 -0.2527
vn -0.0446 0.9665 -0.2527
vn -0.1283 0.9665 -0.2222
vn -0.1966 0.9665 -0.1649
vn -0.2411 0.9665 -0.0878
vn -0.2566 0.9665 -0.0000
vn -0.2411 0.9665 0.0878
vn -0.1966 0.9665 0.1649
vn -0.1283 0.9665 0.2222
vn -0.0446 0.9665 0.2527
vn 0.0446 0.9665 0.2527
vn 0.1283 0.9665 0.2222
vn 0.1966 0.9665 0.1649
vn 0.6233 0.7484 -0.2269
vn 0.6633 0.7483 0.0000
vn 0.5081 0.7484 -0.4263
vn 0.3316 0.7484 -0.5744
vn 0.1152 0.7484 -0.6532
vn -0.1152 0.7484 -0.6532
vn -0.3316 0.7484 -0.5744
vn -0.5081 0.7484 -0.4263
vn -0.6232 0.7484 -0.2269
vn -0.6633 0.7484 0.0000
vn -0.6233 0.7484 0.2269
vn -0.5081 0.7484 0.4264
vn -0.3316 0.7484 0.5744
vn -0.1152 0.7484 0.6532
vn 0.1152 0.7484 0.6532
vn 0.3316 0.7484 0.5744
vn 0.5081 0.7484 0.4264
vn 0.6232 0.7484 0.2269
vn 0.8143 0.4991 -0.2964
vn 0.8665 0.4991 -0.0000
vn 0.6638 0.4991 -0.5570
vn 0.4333 0.4991 -0.7505
vn 0.1505 0.4991 -0.8534
vn -0.1505 0.4991 -0.8534
vn -0.4333 0.4991 -0.7505
vn -0.6638 0.4991 -0.5570
vn -0.8143 0.4991 -0.2964
vn -0.8666 0.4991 -0.0000
vn -0.8143 0.4991 0.2964
vn -0.6638 0.4991 0.5570
vn -0.4333 0.4991 0.7504
vn -0.1505 0.4991 0.8534
vn 0.1505 0.4991 0.8534
vn 0.4333 0.4991 0.7505
vn 0.6638 0.4991 0.5570
vn 0.8143 0.4991 0.2964
# 126 vertex normals

vt 0.3400 0.0000 -0.0000
vt 0.1953 0.0000 -0.3473
vt 0.0874 0.0000 -0.6527
vt 0.0292 0.0000 -0.8794
vt 0.0278 0.0000 -1.0000
vt 0.0833 0.0000 -1.0000
vt 0.1891 0.0000 -0.8794
vt 0.3324 0.0000 -0.6527
vt 0.4960 0.0000 -0.3473
vt 0.6600 0.0000 0.0000
vt 0.8047 0.0000 0.3473
vt 0.9126 0.0000 0.6527
vt 0.9708 0.0000 0.8794
vt 0.9722 0.0000 1.0000
vt 0.9167 0.0000 1.0000
vt 0.8611 0.0000 1.0000
vt 0.8056 0.0000 1.0000
vt 0.7500 0.0000 1.0000
vt 0.8056 0.2000 1.0000
vt 0.7500 0.2000 1.0000
vt 0.8611 0.2000 1.0000
vt 0.9167 0.2000 1.0000
vt 0.9722 0.2000 1.0000
vt -0.0278 0.0000 1.0000
vt 0.0278 0.0000 1.0000
vt 0.0278 0.2000 1.0000
vt -0.0278 0.2000 1.0000
vt 0.0833 0.0000 1.0000
vt 0.0833 0.2000 1.0000
vt 0.1389 0.0000 1.0000
vt 0.1389 0.2000 1.0000
vt 0.1944 0.0000 1.0000
vt 0.1944 0.2000 1.0000
vt 0.2500 0.0000 1.0000
vt 0.2500 0.2000 1.0000
vt 0.3056 0.0000 1.0000
vt 0.3056 0.2000 1.0000
vt 0.3611 0.0000 1.0000
vt 0.3611 0.2000 1.0000
vt 0.4167 0.0000 1.0000
vt 0.4167 0.2000 1.0000
vt 0.4722 0.0000 1.0000
vt 0.4722 0.2000 1.0000
vt 0.5278 0.0000 1.0000
vt 0.5278 0.2000 1.0000
vt 0.5833 0.0000 1.0000
vt 0.5833 0.2000 1.0000
vt 0.6389 0.0000 1.0000
vt 0.6389 0.2000 1.0000
vt 0.6944 0.0000 1.0000
vt 0.6944 0.2000 1.0000
vt 0.8056 0.4000 1.0000
vt 0.7500 0.4000 1.0000
vt 0.8611 0.4000 1.0000
vt 0.9167 0.4000 1.0000
vt 0.9722 0.4000 1.0000
vt 0.0278 0.4000 1.0000
vt -0.0278 0.4000 1.0000
vt 0.0833 0.4000 1.0000
vt 0.1389 0.4000 1.0000
vt 0.1944 0.4000 1.0000
vt 0.2500 0.4000 1.0000
vt 0.3056 0.4000 1.0000
vt 0.3611 0.4000 1.0000
vt 0.4167 0.4000 1.0000
vt 0.4722 0.4000 1.0000
vt 0.5278 0.4000 1.0000
vt 0.5833 0.4000 1.0000
vt 0.6389 0.4000 1.0000
vt 0.6944 0.4000 1.0000
vt 0.8056 0.6000 1.0000
vt 0.7500 0.6000 1.0000
vt 0.8611 0.6000 1.0000
vt 0.9167 0.6000 1.0000
vt 0.9722 0.6000 1.0000
vt 0.0278 0.6000 1.0000
vt -0.0278 0.6000 1.0000
vt 0.0833 0.6000 1.0000
vt 0.1389 0.6000 1.0000
vt 0.1944 0.6000 1.0000
vt 0.2500 0.6000 1.0000
vt 0.3056 0.6000 1.0000
vt 0.3611 0.6000 1.0000
vt 0.4167 0.6000 1.0000
vt 0.4722 0.6000 1.0000
vt 0.5278 0.6000 1.0000
vt 0.5833 0.6000 1.0000
vt 0.6389 0.6000 1.0000
vt 0.6944 0.6000 1.0000
vt 0.8056 0.8000 1.0000
vt 0.7500 0.8000 1.0000
vt 0.8611 0.8000 1.0000
vt 0.9167 0.8000 1.0000
vt 0.9722 0.8000 1.0000
vt 0.0278 0.8000 1.0000
vt -0.0278 0.8000 1.0000
vt 0.0833 0.8000 1.0000
vt 0.1389 0.8000 1.0000
vt 0.1944 0.8000 1.0000
vt 0.2500 0.8000 1.0000
vt 0.3056 0.8000 1.0000
vt 0.3611 0.8000 1.0000
vt 0.4167 0.8000 1.0000
vt 0.4722 0.8000 1.0000
vt 0.5278 0.8000 1.0000
vt 0.5833 0.8000 1.0000
vt 0.6389 0.8000 1.0000
vt 0.6944 0.8000 1.0000
vt 0.8056 1.0000 1.0000
vt 0.7500 1.0000 1.0000
vt 0.8611 1.0000 1.0000
vt 0.9167 1.0000 1.0000
vt 0.9722 1.0000 1.0000
vt 0.0278 1.0000 1.0000
vt -0.0278 1.0000 1.0000
vt 0.0833 1.0000 1.0000
vt 0.1389 1.0000 1.0000
vt 0.1944 1.0000 1.0000
vt 0.2500 1.0000 1.0000
vt 0.3056 1.0000 1.0000
vt 0.3611 1.0000 1.0000
vt 0.4167 1.0000 1.0000
vt 0.4722 1.0000 1.0000
vt 0.5278 1.0000 1.0000
vt 0.5833 1.0000 1.0000
vt 0.6389 1.0000 1.0000
vt 0.6944 1.0000 1.0000
vt 0.9708 1.0000 0.8794
vt 0.9126 1.0000 0.6527
vt 0.8047 1.0000 0.3473
vt 0.6600 1.0000 -0.0000
vt 0.4960 1.0000 -0.3473
vt 0.3325 1.0000 -0.6527
vt 0.1891 1.0000 -0.8794
vt 0.0833 1.0000 -1.0000
vt 0.0278 1.0000 -1.0000
vt 0.0292 1.0000 -0.8794
vt 0.0874 1.0000 -0.6527
vt 0.1953 1.0000 -0.3473
# 139 texture coords

o Cilindro001
g Cilindro001
usemtl Material__2
s 1
f 1/1/1 2/2/2 3/3/3 4/4/4 5/5/5 6/6/6 7/7/7 8/8/8 9/9/9 10/10/10 11/11/11 12/12/12 13/13/13 14/14/14 15/15/15 16/16/16 17/17/17 18/18/18 
s 8
f 19/18/19 20/17/20 21/19/21 22/20/22 
f 20/17/20 23/16/23 24/21/24 21/19/21 
f 23/16/23 25/15/25 26/22/26 24/21/24 
f 25/15/25 27/14/27 28/23/28 26/22/26 
f 27/24/27 29/25/29 30/26/30 28/27/28 
f 29/25/29 31/28/31 32/29/32 30/26/30 
f 31/28/31 33/30/33 34/31/34 32/29/32 
f 33/30/33 35/32/35 36/33/36 34/31/34 
f 35/32/35 37/34/37 38/35/38 36/33/36 
f 37/34/37 39/36/39 40/37/40 38/35/38 
f 39/36/39 41/38/41 42/39/42 40/37/40 
f 41/38/41 43/40/43 44/41/44 42/39/42 
f 43/40/43 45/42/45 46/43/46 44/41/44 
f 45/42/45 47/44/47 48/45/48 46/43/46 
f 47/44/47 49/46/49 50/47/50 48/45/48 
f 49/46/49 51/48/51 52/49/52 50/47/50 
f 51/48/51 53/50/53 54/51/54 52/49/52 
f 53/50/53 19/18/19 22/20/22 54/51/54 
f 22/20/22 21/19/21 55/52/21 56/53/22 
f 21/19/21 24/21/24 57/54/24 55/52/21 
f 24/21/24 26/22/26 58/55/26 57/54/24 
f 26/22/26 28/23/28 59/56/28 58/55/26 
f 28/27/28 30/26/30 60/57/30 59/58/28 
f 30/26/30 32/29/32 61/59/32 60/57/30 
f 32/29/32 34/31/34 62/60/34 61/59/32 
f 34/31/34 36/33/36 63/61/36 62/60/34 
f 36/33/36 38/35/38 64/62/38 63/61/36 
f 38/35/38 40/37/40 65/63/40 64/62/38 
f 40/37/40 42/39/42 66/64/42 65/63/40 
f 42/39/42 44/41/44 67/65/44 66/64/42 
f 44/41/44 46/43/46 68/66/46 67/65/44 
f 46/43/46 48/45/48 69/67/48 68/66/46 
f 48/45/48 50/47/50 70/68/50 69/67/48 
f 50/47/50 52/49/52 71/69/52 70/68/50 
f 52/49/52 54/51/54 72/70/54 71/69/52 
f 54/51/54 22/20/22 56/53/22 72/70/54 
f 56/53/22 55/52/21 73/71/21 74/72/22 
f 55/52/21 57/54/24 75/73/24 73/71/21 
f 57/54/24 58/55/26 76/74/26 75/73/24 
f 58/55/26 59/56/28 77/75/28 76/74/26 
f 59/58/28 60/57/30 78/76/30 77/77/28 
f 60/57/30 61/59/32 79/78/32 78/76/30 
f 61/59/32 62/60/34 80/79/34 79/78/32 
f 62/60/34 63/61/36 81/80/36 80/79/34 
f 63/61/36 64/62/38 82/81/38 81/80/36 
f 64/62/38 65/63/40 83/82/40 82/81/38 
f 65/63/40 66/64/42 84/83/42 83/82/40 
f 66/64/42 67/65/44 85/84/44 84/83/42 
f 67/65/44 68/66/46 86/85/46 85/84/44 
f 68/66/46 69/67/48 87/86/48 86/85/46 
f 69/67/48 70/68/50 88/87/50 87/86/48 
f 70/68/50 71/69/52 89/88/52 88/87/50 
f 71/69/52 72/70/54 90/89/54 89/88/52 
f 72/70/54 56/53/22 74/72/22 90/89/54 
f 74/72/22 73/71/21 91/90/21 92/91/22 
f 73/71/21 75/73/24 93/92/24 91/90/21 
f 75/73/24 76/74/26 94/93/26 93/92/24 
f 76/74/26 77/75/28 95/94/28 94/93/26 
f 77/77/28 78/76/30 96/95/30 95/96/28 
f 78/76/30 79/78/32 97/97/32 96/95/30 
f 79/78/32 80/79/34 98/98/34 97/97/32 
f 80/79/34 81/80/36 99/99/36 98/98/34 
f 81/80/36 82/81/38 100/100/38 99/99/36 
f 82/81/38 83/82/40 101/101/40 100/100/38 
f 83/82/40 84/83/42 102/102/42 101/101/40 
f 84/83/42 85/84/44 103/103/44 102/102/42 
f 85/84/44 86/85/46 104/104/46 103/103/44 
f 86/85/46 87/86/48 105/105/48 104/104/46 
f 87/86/48 88/87/50 106/106/50 105/105/48 
f 88/87/50 89/88/52 107/107/52 106/106/50 
f 89/88/52 90/89/54 108/108/54 107/107/52 
f 90/89/54 74/72/22 92/91/22 108/108/54 
f 92/91/22 91/90/21 109/109/55 110/110/56 
f 91/90/21 93/92/24 111/111/57 109/109/55 
f 93/92/24 94/93/26 112/112/58 111/111/57 
f 94/93/26 95/94/28 113/113/59 112/112/58 
f 95/96/28 96/95/30 114/114/60 113/115/59 
f 96/95/30 97/97/32 115/116/61 114/114/60 
f 97/97/32 98/98/34 116/117/62 115/116/61 
f 98/98/34 99/99/36 117/118/63 116/117/62 
f 99/99/36 100/100/38 118/119/64 117/118/63 
f 100/100/38 101/101/40 119/120/65 118/119/64 
f 101/101/40 102/102/42 120/121/66 119/120/65 
f 102/102/42 103/103/44 121/122/67 120/121/66 
f 103/103/44 104/104/46 122/123/68 121/122/67 
f 104/104/46 105/105/48 123/124/69 122/123/68 
f 105/105/48 106/106/50 124/125/70 123/124/69 
f 106/106/50 107/107/52 125/126/71 124/125/70 
f 107/107/52 108/108/54 126/127/72 125/126/71 
f 108/108/54 92/91/22 110/110/56 126/127/72 
s 1
f 127/127/73 128/110/74 129/109/75 130/111/76 131/112/77 132/113/78 133/128/79 134/129/80 135/130/81 136/131/82 137/132/83 138/133/84 139/134/85 140/135/86 141/136/87 142/137/88 143/138/89 144/139/90 
s off
f 110/110/56 109/109/55 145/109/91 146/110/92 
f 109/109/55 111/111/57 147/111/93 145/109/91 
f 111/111/57 112/112/58 148/112/94 147/111/93 
f 112/112/58 113/113/59 149/113/95 148/112/94 
f 113/113/59 114/128/60 150/128/96 149/113/95 
f 114/128/60 115/129/61 151/129/97 150/128/96 
f 115/129/61 116/130/62 152/130/98 151/129/97 
f 116/130/62 117/131/63 153/131/99 152/130/98 
f 117/131/63 118/132/64 154/132/100 153/131/99 
f 118/132/64 119/133/65 155/133/101 154/132/100 
f 119/133/65 120/134/66 156/134/102 155/133/101 
f 120/134/66 121/135/67 157/135/103 156/134/102 
f 121/135/67 122/136/68 158/136/104 157/135/103 
f 122/136/68 123/137/69 159/137/105 158/136/104 
f 123/137/69 124/138/70 160/138/106 159/137/105 
f 124/138/70 125/139/71 161/139/107 160/138/106 
f 125/139/71 126/127/72 162/127/108 161/139/107 
f 126/127/72 110/110/56 146/110/92 162/127/108 
f 146/110/92 145/109/91 163/109/109 164/110/110 
f 145/109/91 147/111/93 165/111/111 163/109/109 
f 147/111/93 148/112/94 166/112/112 165/111/111 
f 148/112/94 149/113/95 167/113/113 166/112/112 
f 149/113/95 150/128/96 168/128/114 167/113/113 
f 150/128/96 151/129/97 169/129/115 168/128/114 
f 151/129/97 152/130/98 170/130/116 169/129/115 
f 152/130/98 153/131/99 171/131/117 170/130/116 
f 153/131/99 154/132/100 172/132/118 171/131/117 
f 154/132/100 155/133/101 173/133/119 172/132/118 
f 155/133/101 156/134/102 174/134/120 173/133/119 
f 156/134/102 157/135/103 175/135/121 174/134/120 
f 157/135/103 158/136/104 176/136/122 175/135/121 
f 158/136/104 159/137/105 177/137/123 176/136/122 
f 159/137/105 160/138/106 178/138/124 177/137/123 
f 160/138/106 161/139/107 179/139/125 178/138/124 
f 161/139/107 162/127/108 180/127/126 179/139/125 
f 162/127/108 146/110/92 164/110/110 180/127/126 
f 164/110/110 163/109/109 129/109/75 128/110/74 
f 163/109/109 165/111/111 130/111/76 129/109/75 
f 165/111/111 166/112/112 131/112/77 130/111/76 
f 166/112/112 167/113/113 132/113/78 131/112/77 
f 167/113/113 168/128/114 133/128/79 132/113/78 
f 168/128/114 169/129/115 134/129/80 133/128/79 
f 169/129/115 170/130/116 135/130/81 134/129/80 
f 170/130/116 171/131/117 136/131/82 135/130/81 
f 171/131/117 172/132/118 137/132/83 136/131/82 
f 172/132/118 173/133/119 138/133/84 137/132/83 
f 173/133/119 174/134/120 139/134/85 138/133/84 
f 174/134/120 175/135/121 140/135/86 139/134/85 
f 175/135/121 176/136/122 141/136/87 140/135/86 
f 176/136/122 177/137/123 142/137/88 141/136/87 
f 177/137/123 178/138/124 143/138/89 142/137/88 
f 178/138/124 179/139/125 144/139/90 143/138/89 
f 179/139/125 180/127/126 127/127/73 144/139/90 
f 180/127/126 164/110/110 128/110/74 127/127/73 
f 20/17/20 19/18/19 18/18/18 17/17/17 
f 19/18/19 53/1/53 1/1/1 18/18/18 
f 53/1/53 51/2/51 2/2/2 1/1/1 
f 51/2/51 49/3/49 3/3/3 2/2/2 
f 49/3/49 47/4/47 4/4/4 3/3/3 
f 47/4/47 45/5/45 5/5/5 4/4/4 
f 45/5/45 43/6/43 6/6/6 5/5/5 
f 43/6/43 41/7/41 7/7/7 6/6/6 
f 41/7/41 39/8/39 8/8/8 7/7/7 
f 39/8/39 37/9/37 9/9/9 8/8/8 
f 37/9/37 35/10/35 10/10/10 9/9/9 
f 35/10/35 33/11/33 11/11/11 10/10/10 
f 33/11/33 31/12/31 12/12/12 11/11/11 
f 31/12/31 29/13/29 13/13/13 12/12/12 
f 29/13/29 27/14/27 14/14/14 13/13/13 
f 27/14/27 25/15/25 15/15/15 14/14/14 
f 25/15/25 23/16/23 16/16/16 15/15/15 
f 23/16/23 20/17/20 17/17/17 16/16/16 
# 164 polygons

